<?xml version="1.0" encoding="UTF-8" standalone="no"?>
<svg viewBox="0 0 460 427" version="1.1" xmlns="http://www.w3.org/2000/svg" xmlns:xlink="http://www.w3.org/1999/xlink">
    <defs></defs>
    <g id="icon" stroke="none" stroke-width="1" fill="none" fill-rule="evenodd" stroke-linecap="round" stroke-linejoin="round">
        <path d="M450.200012,189.729816 C450.200012,288.99017 351.667482,369.440477 230.090436,369.440477 C202.949968,369.440477 176.977038,365.437116 152.975525,358.100815 L26.4986482,417.001932 L76.0328728,318.048055 C35.2838913,285.427371 10,239.992103 10,189.729816 C10,90.4503066 108.53253,10 230.109576,10 C351.686622,10 450.200012,90.4503066 450.200012,189.729816 L450.200012,189.729816 Z M124.820639,117.726792 L201.380491,117.726792 L201.380491,194.346131 L124.820639,194.346131 L124.820639,117.726792 Z M201.380491,194.346131 L201.380491,223.078383 C201.380491,244.148702 184.154525,261.388053 163.100565,261.388053 M258.800381,117.726792 L335.360233,117.726792 L335.360233,194.346131 L258.800381,194.346131 L258.800381,117.726792 Z M335.360233,194.346131 L335.360233,223.078383 C335.360233,244.148702 318.134267,261.388053 297.080307,261.388053" id="Shape" stroke="#000000" stroke-width="19"></path>
    </g>
</svg>