<svg xmlns="http://www.w3.org/2000/svg" style="display: none;">
  
    <symbol id="wsc-code" viewBox="0 0 512 512">
      <path d="m491 164c-19-46-51-85-92-112-41-28-90-44-143-44-35 0-69 7-100 20-46 20-85 52-112 93-28 41-44 90-44 143 0 54 17 105 46 146 29 42 70 74 118 93 3 1 6 1 9 0 3-2 5-4 6-8l55-225c1-5-1-11-6-13-10-5-19-13-26-23-6-10-10-21-10-34 0-9 2-17 5-25 5-11 13-21 23-28 10-6 23-10 36-10 9 0 17 1 24 5 12 4 22 12 28 23 7 10 11 22 11 35 0 13-3 24-10 34-6 10-15 18-26 23-4 2-7 8-6 13l54 225c1 3 3 6 6 8 3 1 6 1 9 0 48-18 90-51 119-92 29-42 46-92 46-147 0-35-7-69-20-100z m-44 234c-24 35-58 62-97 80l-49-205c11-7 20-16 27-27 8-13 13-29 13-46 0-12-2-23-6-33-7-16-18-29-31-38-14-9-31-14-48-14-12 0-23 2-34 6-15 7-28 18-37 31-9 14-15 30-15 48 0 17 5 33 14 46 7 11 16 20 27 27l-51 205c-38-18-72-46-96-80-26-38-42-84-42-134 0-32 7-63 19-91 17-42 47-78 84-103 37-25 82-40 131-40 32 0 63 7 91 19 42 17 77 47 102 84 26 38 40 82 40 131 0 50-15 96-42 134z"/>
    </symbol>
  
    <symbol id="wsc-code2" viewBox="0 0 512 512">
      <path d="m256 1c-141 0-255 114-255 255 0 141 114 255 255 255 141 0 255-114 255-255 0-141-114-255-255-255z m94 468l-49-205c11-7 20-16 27-27 9-13 13-29 13-46 0-12-2-23-6-33-7-16-18-29-31-38-14-9-31-15-48-15-12 0-23 3-34 7-15 7-28 18-37 31-10 14-15 30-15 48 0 17 5 33 14 46 6 11 16 20 27 27l-51 205c-39-17-72-45-96-80-27-38-42-84-42-134 0-32 6-63 18-91 18-42 48-78 85-103 37-25 82-40 131-40 32 0 63 7 91 18 42 18 78 48 103 85 25 38 40 83 40 131 0 50-16 97-43 135-24 34-58 62-97 79z"/>
    </symbol>
  
    <symbol id="wsc-speak" viewBox="0 0 512 512">
      <path d="m491 147c-10-19-23-36-39-52-23-23-53-42-86-55-33-13-71-21-110-21-70 0-133 24-179 61-24 19-42 42-56 67-13 25-20 53-20 83 0 29 8 58 21 83 12 23 29 44 50 62l-52 102c-2 4-1 9 2 12 3 4 8 4 12 3l137-64c27 8 55 12 85 12 70 0 133-23 180-61 23-19 42-42 55-67 13-25 20-53 20-82 0-30-7-58-20-83z m-19 155c-9 17-21 33-35 47-21 21-48 39-79 51-31 12-65 19-102 19-29 0-57-5-83-12-2-1-5-1-7 0l-113 53 41-83c3-5 1-10-2-13-22-17-39-38-51-61-12-22-19-47-19-73 0-26 7-51 18-73 9-17 21-33 35-47 21-21 48-38 79-50 31-13 65-19 102-19 65 0 124 21 166 56 21 17 38 37 50 60 12 22 18 47 18 73 0 25-6 50-18 72z m-248-163l-85 0c-3 0-5 1-7 3-2 2-3 5-3 8l0 85c0 3 1 5 3 7 2 2 4 3 7 3l74 0 0 22c0 4 0 8-2 12-3 6-7 11-12 14-5 4-11 6-17 6-6 0-11 4-11 10 0 6 5 11 11 11 7 0 14-2 20-4 10-4 18-11 23-20 6-8 9-18 9-29l0-117c0-3-1-6-3-8-2-2-4-3-7-3z m-74 21l63 0 0 64-63 0z m223-21l-85 0c-3 0-5 1-7 3-2 2-3 5-3 8l0 85c0 3 1 5 3 7 2 2 4 3 7 3l74 0 0 22c0 4-1 8-2 12-3 6-7 11-12 14-5 4-11 6-18 6-5 0-10 4-10 10 0 6 5 11 10 11 8 0 15-2 21-4 10-4 18-11 23-20 6-8 9-18 9-29l0-117c0-3-1-6-3-8-2-2-4-3-7-3z m-74 21l63 0 0 64-63 0z"/>
    </symbol>
  
    <symbol id="wsc-speak2" viewBox="0 0 512 512">
      <path d="m491 147c-10-19-23-36-39-52-23-23-53-42-86-55-33-13-71-20-110-20-70 0-133 23-180 60-23 19-42 42-55 67-13 26-20 53-20 83 0 29 7 58 21 83 12 23 29 44 50 62l-52 102c-2 5-1 9 2 13 3 3 8 4 12 2l137-64c27 8 55 12 85 12 70 0 133-23 179-61 24-19 42-41 56-67 13-25 20-53 20-82 0-30-7-57-20-83z m-19 156c-9 16-21 32-35 46-21 21-48 39-79 51-31 12-65 19-102 19-29 0-57-4-83-12-2-1-5-1-7 0l-113 53 41-83c3-4 1-10-3-13-21-17-39-38-50-61-12-22-19-47-19-73 0-26 6-51 18-73 9-17 21-33 35-47 21-21 48-38 79-50 31-12 65-19 102-19 65 0 124 21 166 56 21 17 38 37 50 60 11 22 18 47 18 73 0 26-7 50-18 73z m-248-164l-85 0c-3 0-5 1-7 3-2 2-3 5-3 8l0 85c0 3 1 5 3 7 2 2 4 3 7 3l74 0 0 22c0 4-1 8-2 12-3 6-7 11-12 14-5 4-11 6-17 6-6 0-11 5-11 10 0 6 5 11 11 11 7 0 14-2 20-4 10-4 18-11 23-20 6-8 9-18 9-29l0-117c0-3-1-6-3-8-2-2-4-3-7-3m149 0l-85 0c-3 0-5 1-7 3-2 2-3 5-3 8l0 85c0 3 1 5 3 7 2 2 4 3 7 3l74 0 0 22c0 4-1 8-2 12-3 6-7 11-12 14-5 4-11 6-18 6-6 0-10 5-10 10 0 6 5 11 10 11 8 0 15-2 21-4 10-4 17-11 23-20 6-8 9-18 9-29l0-117c0-3-1-6-3-8-2-2-4-3-7-3"/>
    </symbol>
  
    <symbol id="wsc-write1" viewBox="0 0 512 512">
      <path d="m88 412c-8-6-17-9-27-9-7 0-14 2-19 4-9 4-16 10-22 18-5 7-8 17-8 27 0 7 1 13 4 19 4 9 10 16 17 21 8 5 18 8 28 8 6 0 13-1 18-3 9-4 17-10 22-18 5-8 8-17 8-27 0-7-1-13-4-19-3-9-10-16-17-21z m-3 50c-2 5-6 9-10 12-4 2-9 4-14 4-4 0-7-1-11-2-4-2-8-5-11-10-3-4-4-9-4-14 0-4 0-7 2-10 2-5 5-9 9-12 4-3 9-4 15-4 3 0 7 1 10 2 4 2 8 5 11 9 3 4 5 9 5 15 0 4-1 7-2 10z m58-154c-36-25-80-39-127-39-6 0-11 5-11 11 0 6 5 12 11 12 28 0 55 5 80 16 36 15 68 41 90 74 22 33 35 72 35 115 0 6 5 11 11 11 6 0 11-5 11-11 0-32-6-62-17-89-18-41-47-76-83-100m75-111c-58-39-127-62-202-62-6 0-11 5-11 11 0 6 5 11 11 11 47 0 91 10 132 27 61 26 113 69 149 123 37 54 58 119 58 190 0 6 5 11 11 11 7 0 12-5 12-11 0-50-10-98-29-141-27-65-73-120-131-159m251 91c-41-90-108-161-188-210-80-48-174-74-269-74-7 0-12 5-12 11 0 7 5 12 12 12 60 0 121 11 177 32 84 31 159 85 213 158 27 37 48 79 63 124 15 46 24 97 24 151 0 6 5 11 11 11 6 0 11-5 11-11 0-76-15-144-42-204"/>
    </symbol>
  
    <symbol id="wsc-write2" viewBox="0 0 512 512">
      <path d="m218 197c-58-39-127-62-202-62-6 0-11 5-11 11 0 6 5 11 11 11 47 0 91 10 132 27 61 26 113 69 149 123 37 54 58 119 58 190 0 6 5 11 11 11 7 0 12-5 12-11 0-50-10-98-29-141-27-65-73-120-131-159m251 91c-41-90-108-161-188-210-80-48-174-74-269-74-7 0-12 5-12 11 0 7 5 12 12 12 60 0 121 11 177 32 84 31 159 85 213 159 27 36 48 78 63 123 15 46 24 97 24 151 0 6 5 11 11 11 6 0 11-5 11-11 0-76-15-144-42-204m-381 124c-8-6-17-9-27-9-7 0-14 2-19 4-9 4-16 10-22 18-5 8-8 17-8 27 0 7 1 13 4 19 4 9 10 16 17 21 8 5 18 9 28 9 6 0 13-2 18-4 9-4 17-10 22-18 5-8 8-17 8-27 0-7-1-13-4-19-3-9-10-16-17-21m55-104c-36-25-80-39-127-39-6 0-11 5-11 11 0 7 5 12 11 12 28 0 55 5 80 16 36 15 68 41 90 74 22 33 35 72 35 115 0 6 5 11 11 11 6 0 11-5 11-11 0-32-6-62-17-89-18-41-47-75-83-100"/>
    </symbol>
  
    <symbol id="wsc-writespeakcode" viewBox="0 0 512 512">
      <path d="m363 219l-3 0c0 0 0 0 0 0l-20 74c0 0 0 0 0 0l3 0c0 0 0 0 0 0l20-74c0 0 0 0 0 0z m-165 0l-3 0c0 0 0 0 0 0l-20 74c0 0 0 0 0 0l3 0c0 0 0 0 0 0l20-74c0 0 0 0 0 0z m-163 19l0-2c0-1 0-1 0-1l-35 21c0 0 0 0 0 0l0 3c0 0 0 0 0 1l35 20c0 0 0 0 0-1l0-2c0-1 0-1 0-1l-32-19 32-18c0 0 0 0 0-1z m442 1l32 19 0-1 0 0 0 1 0 0 0-1-32 19c0 0 0 0 0 1l0 2c0 1 0 1 1 1l34-20c0-1 0-1 0-1l0-3c0 0 0 0 0 0l-35-21c0 0 0 0 0 1l0 2c0 1 0 1 0 1z m-398 40l-10-43-3 0-11 43-10-43-4 0 12 47 0 0 5 0 9-40 10 40 5 0 11-47-3 0z m19-42c-2 1-2 3-2 4l0 42 3 0 0-42c0 0 1-1 1-1 1 0 1 0 2 0l9 0 0-4-9 0c-2 0-3 0-4 1z m17-1l3 0 0 47-3 0z m0-17l3 0 0 8-3 0z m21 0l-4 0 0 17-10 0 0 4 10 0 0 43 4 0 0-43 9 0 0-4-9 0z m30 17l-12 0c-1 0-3 0-4 1-1 1-1 3-1 4l0 37c0 1 0 2 1 4 1 1 3 1 4 1l12 0c2 0 4 0 5-1 1-2 2-3 2-4l0-9-4 0 0 9c0 0 0 1-1 1 0 1-1 1-2 1l-12 0c0 0-1-1-2-1 0 0 0-1 0-1l0-16 21 0 0-21c0-1-1-3-2-4-1-1-3-1-5-1z m3 22l-17 0 0-17c0 0 0-1 0-1 1 0 2 0 2 0l12 0c1 0 2 0 2 0 1 0 1 1 1 1l0 17z m49-22l-13 0c-2 0-3 0-4 1-2 1-2 3-2 4l0 15 21 7 0 15c0 0 0 1-1 1 0 1-1 1-1 1l-14 0c0 0 0 0-1-1 0 0 0-1 0-1l0-9-4 0 0 9c0 1 0 2 2 4 1 1 2 1 3 1l14 0c1 0 3 0 4-1 1-2 2-3 2-4l0-18-21-6 0-13c0 0 0-1 0-1 1 0 1 0 2 0l13 0c0 0 1 0 1 0 1 0 1 1 1 1l0 8 4 0 0-8c0-1-1-3-2-4-1-1-3-1-4-1z m28 0l-19 0 0 68 4 0 0-23c1 2 3 2 6 2l9 0c2 0 3 0 4-1 1-2 2-3 2-4l0-37c0-1-1-3-2-4-1-1-2-1-4-1z m2 42c0 0 0 1 0 1-1 1-1 1-2 1l-9 0c-2 0-3-1-4-2-2-2-2-3-2-5l0-33 15 0c1 0 1 0 2 0 0 0 0 1 0 1l0 37z m26-42l-12 0c-2 0-3 0-4 1-2 1-2 3-2 4l0 37c0 1 0 2 2 4 1 1 2 1 4 1l12 0c2 0 3 0 4-1 1-2 2-3 2-4l0-9-4 0 0 9c0 0 0 1-1 1 0 1 0 1-1 1l-12 0c-1 0-1-1-2-1 0 0 0-1 0-1l0-16 20 0 0-21c0-1-1-3-2-4-1-1-3-1-4-1z m2 22l-16 0 0-17c0 0 0-1 0-1 1 0 1 0 2 0l12 0c1 0 1 0 1 0 1 0 1 1 1 1l0 17z m25-22l-18 0 0 4 18 0c1 0 2 0 2 0 0 0 1 1 1 1l0 11-15 0c-2 0-3 1-4 2-1 1-2 3-2 4l0 20c0 1 1 2 2 4 1 1 2 1 4 1l18 0 0-42c0-1 0-3-2-4-1-1-2-1-4-1z m3 44l-15 0c-1 0-1-1-2-1 0 0 0-1 0-1l0-20c0 0 0-1 0-1 1-1 1-1 2-1l15 0z m32-44l-5 0-17 22 0-46-3 0 0 71 3 0 0-19 7-9 13 28 4 0-15-31z m45 0l-13 0c-1 0-2 0-4 1-1 1-1 3-1 4l0 37c0 1 0 2 1 4 2 1 3 1 4 1l13 0c1 0 3 0 4-1 1-2 1-3 1-4l0-11-3 0 0 11c0 0 0 1-1 1 0 1-1 1-1 1l-13 0c0 0-1-1-1-1-1 0-1-1-1-1l0-37c0 0 0-1 1-1 0 0 1 0 1 0l13 0c0 0 1 0 1 0 1 0 1 1 1 1l0 9 3 0 0-9c0-1 0-3-1-4-1-1-3-1-4-1z m28 0l-13 0c-2 0-3 0-4 1-1 1-2 3-2 4l0 37c0 1 1 2 2 4 1 1 2 1 4 1l13 0c2 0 3 0 4-1 2-2 2-3 2-4l0-37c0-1 0-3-2-4-1-1-2-1-4-1z m3 42c0 0-1 1-1 1-1 1-1 1-2 1l-13 0c-1 0-1-1-1-1-1 0-1-1-1-1l0-37c0 0 0-1 1-1 0 0 0 0 1 0l13 0c1 0 1 0 2 0 0 0 1 1 1 1z m27-42l-15 0c-1 0-2 0-4 1-1 1-1 3-1 4l0 37c0 1 0 2 1 4 2 1 3 1 4 1l18 0 0-71-3 0z m0 44l-15 0c0 0-1-1-1-1-1 0-1-1-1-1l0-37c0 0 0-1 1-1 0 0 1 0 1 0l15 0z m31-18l0-21c0-1-1-3-2-4-1-1-2-1-4-1l-12 0c-2 0-3 0-4 1-1 1-2 3-2 4l0 37c0 1 1 2 2 4 1 1 2 1 4 1l12 0c2 0 3 0 4-1 2-2 2-3 2-4l0-9-4 0 0 9c0 0 0 1 0 1-1 1-1 1-2 1l-12 0c-1 0-1-1-2-1 0 0 0-1 0-1l0-16z m-20-21c0 0 0-1 0-1 1 0 1 0 2 0l12 0c1 0 1 0 2 0 0 0 0 1 0 1l0 17-16 0z"/>
    </symbol>
  
    <symbol id="wsc-writespeakcode-inverted" viewBox="0 0 512 512">
      <path d="m363 217l-3 0c0 0 0 0 0 0l-20 74c0 0 0 0 0 0l3 0c0 0 0 0 0 0l20-73c0-1 0-1 0-1z m-165 0l-3 0c0 0 0 0 0 0l-20 74c0 0 0 0 0 0l3 0c0 0 0 0 0 0l20-73c0-1 0-1 0-1z m-163 20l0-3c0 0 0-1 0 0l-35 20c0 0 0 0 0 0l0 3c0 0 0 1 0 1l35 20c0 0 0 0 0 0l0-3c0 0 0-1 0-1l-32-18 32-19c0 0 0 0 0 0z m442 0l32 19 0 0 0 0 0 0 0 0 0 0-32 18c0 0 0 1 0 1l0 3c0 0 0 0 0 0l35-20c0 0 0 0 0-1l0-3c0 0 0 0 0 0l-35-21c0 0 0 1 0 1l0 3c0 0 0 0 0 0z m-397 40l-11-43-3 0-11 43-10-43-3 0 11 47 0 0 5 0 9-39 10 39 5 0 11-47-3 0z m18-42c-2 2-2 3-2 5l0 41 3 0 0-41c0-1 1-1 1-2 1 0 1 0 2 0l9 0 0-4-9 0c-2 0-3 0-4 1z m17-1l3 0 0 47-3 0z m0-17l3 0 0 8-3 0z m21 0l-4 0 0 17-10 0 0 4 10 0 0 43 4 0 0-43 9 0 0-4-9 0z m31 17l-13 0c-1 0-3 0-4 1-1 2-1 3-1 5l0 36c0 1 0 3 1 4 1 1 3 1 4 1l13 0c1 0 3 0 4-1 1-1 2-3 2-4l0-9-4 0 0 9c0 0 0 1-1 1 0 1-1 1-1 1l-13 0c0 0-1 0-2-1 0 0 0-1 0-1l0-16 21 0 0-20c0-2-1-3-2-5-1-1-3-1-4-1z m2 22l-17 0 0-16c0-1 0-1 0-2 1 0 2 0 2 0l13 0c0 0 1 0 1 0 1 1 1 1 1 2l0 16z m49-22l-13 0c-2 0-3 0-4 1-1 2-2 3-2 5l0 15 21 6 0 15c0 1 0 1-1 1 0 1-1 1-1 1l-13 0c-1 0-1 0-2-1 0 0 0 0 0-1l0-9-4 0 0 9c0 1 1 3 2 4 1 1 2 1 4 1l13 0c1 0 3 0 4-1 1-1 2-3 2-4l0-18-21-6 0-12c0-1 0-1 0-2 1 0 1 0 2 0l13 0c0 0 1 0 2 0 0 1 0 1 0 2l0 7 4 0 0-7c0-2-1-3-2-5-1-1-3-1-4-1z m28 0l-19 0 0 68 4 0 0-23c1 2 3 2 6 2l9 0c2 0 3 0 4-1 1-1 2-3 2-4l0-36c0-2-1-3-2-5-1-1-2-1-4-1z m2 42c0 0 0 1 0 1-1 1-1 1-2 1l-9 0c-2 0-3-1-4-2-2-1-2-3-2-4l0-34 15 0c1 0 1 0 2 0 0 1 0 1 0 2l0 36z m26-42l-12 0c-2 0-3 0-4 1-2 2-2 3-2 5l0 36c0 1 0 3 2 4 1 1 2 1 4 1l12 0c2 0 3 0 4-1 1-1 2-3 2-4l0-9-4 0 0 9c0 0 0 1-1 1 0 1 0 1-1 1l-12 0c-1 0-1 0-2-1 0 0 0-1 0-1l0-16 20 0 0-20c0-2-1-3-2-5-1-1-3-1-4-1z m2 22l-16 0 0-16c0-1 0-1 0-2 1 0 1 0 2 0l12 0c0 0 1 0 1 0 1 1 1 1 1 2l0 16z m25-22l-18 0 0 4 18 0c1 0 2 0 2 0 0 1 0 1 0 2l0 11-14 0c-2 0-3 0-4 1-1 2-2 3-2 5l0 19c0 1 1 3 2 4 1 1 2 1 4 1l18 0 0-41c0-2 0-3-2-5-1-1-2-1-4-1z m3 44l-15 0c-1 0-1 0-2-1 0 0 0-1 0-1l0-19c0-1 0-2 0-2 1-1 1-1 2-1l15 0z m32-44l-5 0-17 23 0-47-3 0 0 71 3 0 0-19 7-9 13 28 4 0-15-31z m45 0l-13 0c-1 0-2 0-4 1-1 2-1 3-1 5l0 36c0 1 0 3 1 4 2 1 3 1 4 1l13 0c1 0 3 0 4-1 1-1 1-3 1-4l0-11-3 0 0 11c0 0 0 1-1 1 0 1-1 1-1 1l-13 0c0 0-1 0-1-1-1 0-1-1-1-1l0-36c0-1 0-1 1-2 0 0 1 0 1 0l13 0c0 0 1 0 1 0 1 1 1 1 1 2l0 9 3 0 0-9c0-2 0-3-1-5-1-1-3-1-4-1z m28 0l-13 0c-2 0-3 0-4 1-1 2-2 3-2 5l0 36c0 1 1 3 2 4 1 1 2 1 4 1l13 0c2 0 3 0 4-1 2-1 2-3 2-4l0-36c0-2 0-3-2-5-1-1-2-1-4-1z m2 42c0 0 0 1 0 1-1 1-1 1-2 1l-13 0c-1 0-1 0-2-1 0 0 0-1 0-1l0-36c0-1 0-1 0-2 1 0 1 0 2 0l13 0c1 0 1 0 2 0 0 1 0 1 0 2z m28-42l-15 0c-1 0-3 0-4 1-1 2-1 3-1 5l0 36c0 1 0 3 1 4 1 1 3 1 4 1l18 0 0-71-3 0z m0 44l-15 0c0 0-1 0-1-1-1 0-1-1-1-1l0-36c0-1 0-1 1-2 0 0 1 0 1 0l15 0z m31-18l0-20c0-2-1-3-2-5-1-1-2-1-4-1l-12 0c-2 0-3 0-4 1-1 2-2 3-2 5l0 36c0 1 1 3 2 4 1 1 2 1 4 1l12 0c2 0 3 0 4-1 1-1 2-3 2-4l0-9-4 0 0 9c0 0 0 1 0 1-1 1-1 1-2 1l-12 0c-1 0-1 0-2-1 0 0 0-1 0-1l0-16z m-20-20c0-1 0-1 0-2 1 0 1 0 2 0l12 0c1 0 1 0 2 0 0 1 0 1 0 2l0 16-16 0z"/>
    </symbol>
  
    <symbol id="wsc-speak3" viewBox="0 0 512 512">
      <path d="m491 147c-10-19-23-36-39-52-23-23-53-42-86-55-33-13-71-21-110-21-70 0-134 23-180 61-23 19-42 42-55 67-13 25-21 53-21 83 0 30 8 58 21 84 13 23 30 44 50 61l-51 103c-2 4-1 9 2 12 3 3 8 4 12 2l137-64c27 8 55 12 85 12 70 0 134-23 180-61 23-18 42-41 55-66 13-26 21-54 21-83 0-30-8-58-21-83z m-19 156c-8 17-20 32-34 47-22 21-49 38-80 50-31 12-65 19-102 19-29 0-57-4-83-12-2-1-5 0-7 1l-114 52 42-83c2-4 1-10-3-13-22-17-39-38-51-60-12-23-18-48-18-74 0-26 6-51 18-73 8-17 20-33 34-47 22-21 49-39 80-51 31-12 65-19 102-19 65 0 124 22 167 57 21 17 38 37 49 60 12 22 18 47 18 73 0 26-6 50-18 73z m-300-19c-2 0-4 0-6-2-3-3-3-8-1-11 15-18 20-38 23-55-23-2-41-18-46-40-7-29 10-58 39-64 28-7 57 10 64 39 0 0 0 0 0 0 0 0 0 0 0 0 7 29-3 61-28 93-19 23-39 38-40 39-2 1-3 1-5 1z m25-84c2 0 4 0 6 2 1 2 2 4 2 7 0 8-2 18-5 28 19-21 36-51 29-81 0 0 0 0 0-1 0 0 0 0 0 0-5-20-25-32-44-27-20 4-32 24-27 44 4 17 20 29 38 28 0 0 0 0 1 0z m91 84c-2 0-4 0-6-2-3-3-3-8 0-11 14-18 20-38 22-55-22-2-41-18-46-40-7-29 11-58 39-64 29-7 57 10 64 39 0 0 0 0 0 0 0 0 0 0 0 0 7 29-2 61-28 93-19 23-39 38-40 39-1 1-3 1-5 1z m25-84c2 0 4 0 6 2 2 2 3 4 2 7 0 8-2 18-4 28 18-21 35-51 28-81 0 0 0 0 0-1l0 0c-5-20-24-32-44-27-9 2-17 8-23 16-5 8-6 18-4 28 4 17 20 29 38 28 1 0 1 0 1 0z"/>
    </symbol>
  
    <symbol id="wsc-write" viewBox="0 0 512 512">
      <path d="m256 83c-71 0-148 57-148 148 0 45 18 83 52 112 1 0 1 0 2 1 24 26 25 31 26 43 0 4 0 6 0 7l0 3c-1 6-1 17 13 21l107 24c1 0 2 0 2 0 4 0 8-3 9-7 0-2 0-4-2-6-1-2-3-3-5-4l-107-23c0 0 0 0 0 0 0-1 0-3 0-5l0-2c0-1 0-3 0-8 0-18-4-26-31-55-1-1-2-2-2-2-31-26-47-60-47-99 0-81 68-131 131-131 64 0 130 49 130 131 0 25-4 63-45 98-1 1-2 1-3 2-27 30-31 38-31 56l0 0c0 0 0 1 0 1l-55-13c-5-1-9 2-10 6-1 5 2 10 6 11l55 13c1 0 8 2 15-2 2-2 6-6 6-13l0-1c0 0 0-1 0-1 0 0 0 0 0-1l0 0c0-12 2-16 26-43 0 0 0 0 0 0 36-31 54-67 54-113 0-92-75-148-148-148m55 378l-106-24c-5-1-9 2-10 7-1 2-1 4 1 6 1 2 3 3 5 4l106 24c1 0 1 0 2 0 4 0 7-3 8-7 1-2 0-4-1-6-1-2-3-3-5-4m-13 33l-87-19c-4-1-9 2-10 6 0 3 0 5 1 7 2 2 3 3 6 4l86 19c0 0 1 0 2 0 4 0 7-3 8-6 1-5-2-10-6-11m-114-285l0 0c0 0 1 0 1 0 3 0 6-2 6-5 0-2 0-4-1-6-1-1-2-2-4-2-2 0-3 0-4 1-2 2-3 4-3 6 0 2 1 6 5 6m28 35c2 4 5 8 12 8 5 1 11-3 16-9 4 6 9 9 15 9 4 0 8-1 12-4 3 3 8 4 13 4l0 0c8 0 15-5 19-10 1 3 2 6 4 7 3 3 7 4 8 4l0 0c5 0 10-6 13-10 0 1 1 2 2 4l-1 0c-8 10-16 21-22 32-16 29-26 60-28 94 0 4 2 7 6 7 2 0 4 0 5-1 1-1 2-3 2-5 3-32 11-62 27-88 5-9 15-23 20-30 3-3 3-6 1-10-2-3-3-6-3-6-2-4-1-11 0-14l1 0 0-2c0-2-1-3-3-5 0 0 1-1 1-3l0 0c0 0 1-5-2-9-2-2-5-4-9-4-4 0-8 2-12 5-3 3-7 8-9 17-5 8-12 17-21 17-2 0-3-1-5-1 1-1 2-2 2-3 4-5 6-9 8-13 0-1 0-1 0-2 3-6 7-16-2-21-3-2-6-2-9-1-8 4-13 18-13 26 0 5 0 9 1 13-2 1-4 2-5 2-4-1-7-4-9-9 4-6 6-12 8-16 15-42 15-57 12-63-2-2-4-3-6-4-2 0-5 1-7 2-4 4-8 11-11 22-3 9-5 20-7 31 0 0 0 0 0 0-6-1-19 6-23 22-7 10-12 15-17 15-2 0-4 0-5-1-3-4-3-11-1-21 1-1 1-2 1-2 0-2-2-4-4-4-3-1-6 0-7 3-1 3-2 8-2 13 0 0 0 1 0 1 0 0 0 1 0 1 0 2 0 6-1 9 0 0 0 0 0 0-1 2-3 5-4 8 0 2 0 5 2 7 8 9 15 19 21 30 15 27 24 56 26 88 1 4 4 7 7 7 0 0 0 0 1 0 1 0 2-1 3-1 2-2 3-4 3-7-3-33-12-65-28-94-6-10-13-20-21-30 2 2 5 3 8 4 5 1 11-3 17-9z m19-28c1 0 2-1 3-1 0 0 0 0 0 0 0 0 1 0 1 1 0 5 1 10 1 15-4 7-8 12-11 12l0 0c-1 0-1-1-2-1-1-1-1-3-1-7 1-7 5-15 9-19z m14-2c0-7 1-15 3-24 4-16 7-23 10-26-1 6-3 19-5 27-1 3-4 13-8 23z m32-3c0 0 1 3-2 10 0 1 0 1-1 2 0 1 0 2-1 4-1 1-2 3-3 4 1-8 4-17 7-20 0 0 0 0 0 0z m33 16c2-9 7-15 10-15l0 0c1 0 2 1 3 2 1 1 1 4 1 4l-1 2c0 0 0 0 0 1-1 6-7 21-11 21-1 0-1 0-2 0-1-3-2-9 0-15z m-237-174c-3 0-5 1-7 3-4 4-4 11 0 15l50 50c2 1 4 3 7 3 3 0 5-2 7-3 4-5 4-11 0-15l-50-50c-2-2-4-3-7-3m-52 183c-6 0-11 4-11 10 0 6 5 11 11 11l47 0c5 0 10-5 10-11 0-6-5-10-10-10l-47 0m418-183c-3 0-6 1-8 3l-49 50c-4 4-4 10 0 15 2 1 4 3 7 3 3 0 5-2 7-3l50-50c4-4 4-11 0-15-2-2-4-3-7-3m-183-52c-6 0-10 4-10 10l0 47c0 6 4 10 10 10 6 0 10-4 10-10l0-47c0-6-4-10-10-10m188 235c-6 0-10 4-10 10 0 6 4 11 10 11l47 0c6 0 10-5 10-11 0-6-4-10-10-10l-47 0"/>
    </symbol>
  
    <symbol id="wsc-write-solid" viewBox="0 0 512 512">
      <path d="m311 461l-106-24c-5-1-9 2-10 7-1 2-1 4 1 6 1 2 3 3 5 4l106 24c1 0 1 0 2 0 4 0 7-3 8-7 1-2 0-4-1-6-1-2-3-3-5-4m-13 33l-87-19c-4-1-9 2-10 6 0 3 0 5 1 7 2 2 3 3 6 4l86 19c0 0 1 0 2 0 4 0 7-3 8-6 1-5-2-10-6-11m-225-441c-3 0-5 1-7 3-4 4-4 11 0 15l50 50c2 1 4 3 7 3 3 0 5-2 7-3 4-5 4-11 0-15l-50-50c-2-2-4-3-7-3m-52 183c-6 0-11 4-11 10 0 6 5 11 11 11l47 0c5 0 10-5 10-11 0-6-5-10-10-10l-47 0m418-183c-3 0-6 1-8 3l-49 50c-4 4-4 10 0 15 2 1 4 3 7 3 3 0 5-2 7-3l50-50c4-4 4-11 0-15-2-2-4-3-7-3m-183-52c-6 0-10 4-10 10l0 47c0 6 4 10 10 10 6 0 10-4 10-10l0-47c0-6-4-10-10-10m188 235c-6 0-10 4-10 10 0 6 4 11 10 11l47 0c6 0 10-5 10-11 0-6-4-10-10-10l-47 0m-188-153c-71 0-148 57-148 148 0 45 18 83 52 112 1 0 1 0 2 1 24 26 25 31 26 43 0 4 0 6 0 7l0 3c-1 6-1 17 13 21l107 24c1 0 2 0 2 0 4 0 8-3 9-7 0-2 0-4-2-6-1-2-3-3-5-4l-107-23c0 0 0 0 0 0 0-1 0-3 0-5l0-2c0-1 0-3 0-8 0-2 0-3 0-4l79 18c1 0 2 0 2 0 1 0 1 0 1 0l16 4c1 0 8 2 15-2 2-2 6-6 6-13l0-1c0 0 0-1 0-1 0 0 0 0 0-1l0 0c0-12 2-16 26-43 0 0 0 0 0 0 36-31 54-67 54-113 0-92-75-148-148-148"/>
    </symbol>
  
    <symbol id="wsc-code-solid" viewBox="0 0 512 512">
      <path d="m491 164c-19-46-51-85-92-112-41-28-90-44-143-44-35 0-69 7-100 20-46 19-85 52-112 93-28 41-44 90-44 143 0 54 17 105 46 146 29 42 70 74 118 93 3 1 6 1 9-1 3-1 5-4 6-7l55-226c1-5-1-10-6-12-10-5-19-13-26-23-6-10-10-22-10-34 0-9 2-17 5-25 5-11 13-21 23-28 10-7 23-11 36-11 9 0 17 2 24 5 12 5 22 13 28 23 7 11 11 23 11 36 0 12-3 24-10 34-6 10-15 18-26 23-4 2-7 7-6 12l54 226c1 3 3 6 6 7 3 2 6 2 9 1 48-18 90-51 119-92 29-42 47-93 47-147 0-36-8-69-21-100"/>
    </symbol>
  
    <symbol id="wsc-speak-solid" viewBox="0 0 512 512">
      <path d="m491 147c-10-19-23-37-39-52-23-24-53-43-86-56-34-13-71-20-110-20-70 0-134 23-180 61-24 19-42 41-56 67-13 25-20 53-20 83 0 29 8 58 21 83 12 23 29 44 50 62l-52 103c-2 4-1 9 2 12 3 3 8 4 12 2l138-64c26 8 55 12 85 12 70 0 133-23 180-61 23-19 42-41 55-67 13-25 20-53 20-82 0-30-7-58-20-83"/>
    </symbol>
  
    <symbol id="wsc-ampersand" viewBox="0 0 512 512">
      <path d="m390 116c5 9 6 16 0 22-6 5-13 6-20 2-7-3-10-11-9-20 1-9 6-17 14-22 27-20 68-18 92 6 25 24 25 61 0 85-15 13-32 23-50 32-3 1-5 2-8 3 1 2 2 3 3 4 62 69 57 161-12 225-85 79-237 78-321-1-79-74-70-190 19-254 18-13 39-23 60-30 3-1 6-1 9-3-1-1-2-2-2-2-53-44-42-123 24-153 48-22 106-7 135 35 9 14 12 29 6 45-5 14-18 22-31 21-10-1-18-7-21-16-3-10 1-18 13-26-14-13-30-17-48-13-37 9-54 49-33 81 9 13 21 24 32 34 10 9 23 16 33 25 6 6 12 14 16 22 4 11-4 21-16 20-3-1-5-1-7-2-29-12-58-9-85 2-54 22-87 79-80 135 4 33 23 58 49 78 59 44 149 42 206-4 37-30 51-69 44-116-3-20-13-36-35-43-27-10-56 5-65 33-2 5-4 10-6 15-3 5-8 8-13 6-3-2-6-8-6-11-1-16 6-29 15-42 18-27 41-50 67-70 16-11 32-22 48-33 7-5 14-10 20-15 10-8 13-19 10-31-4-12-12-21-25-23-7-2-14-1-22-1"/>
    </symbol>
  
</svg>
