<?xml version="1.0" encoding="utf-8"?>
<!-- Generator: Adobe Illustrator 19.0.0, SVG Export Plug-In . SVG Version: 6.00 Build 0)  -->
<!DOCTYPE svg PUBLIC "-//W3C//DTD SVG 1.1//EN" "http://www.w3.org/Graphics/SVG/1.1/DTD/svg11.dtd">
<svg version="1.1" id="logo" xmlns="http://www.w3.org/2000/svg" xmlns:xlink="http://www.w3.org/1999/xlink" x="0px" y="0px"
	 viewBox="0 0 1000.5 179" enable-background="new 0 0 1000.5 179" xml:space="preserve">
<g id="symbols">
	<path id="XMLID_27_" fill-rule="evenodd" clip-rule="evenodd" fill="#D84455" d="M708.7,13.6h-5c-0.4,0-0.7,0.3-0.8,0.6l-39,143.2
		c-0.1,0.5,0.3,1.1,0.8,1.1h5c0.4,0,0.7-0.3,0.8-0.6l39-143.2C709.7,14.1,709.3,13.6,708.7,13.6z"/>
	<path id="XMLID_26_" fill-rule="evenodd" clip-rule="evenodd" fill="#D84455" d="M386.6,13.6h-5c-0.4,0-0.7,0.3-0.8,0.6l-39,143.2
		c-0.1,0.5,0.3,1.1,0.8,1.1h5c0.4,0,0.7-0.3,0.8-0.6l39-143.2C387.6,14.1,387.2,13.6,386.6,13.6z"/>
	<path id="XMLID_25_" fill-rule="evenodd" clip-rule="evenodd" fill="#D84455" d="M68.8,51.7v-5.4c0-0.6-0.7-1-1.3-0.7L0.4,85.1
		C0.2,85.3,0,85.5,0,85.8v6.3c0,0.3,0.2,0.6,0.4,0.7l67.1,39.6c0.6,0.3,1.3-0.1,1.3-0.7v-5.6c0-0.3-0.2-0.6-0.4-0.7L6.5,88.7
		l61.8-36.3C68.6,52.2,68.8,52,68.8,51.7z"/>
	<path id="XMLID_24_" fill-rule="evenodd" clip-rule="evenodd" fill="#D84455" d="M932.2,52.4l62.3,37l0.4-0.7h-0.8v0.7h0.8
		l-0.4-0.7l-62.3,36.8c-0.3,0.1-0.4,0.4-0.4,0.7v5.6c0,0.6,0.7,1,1.3,0.7l67.1-39.6c0.3-0.1,0.4-0.4,0.4-0.7v-6.3
		c0-0.3-0.2-0.6-0.4-0.7L933,45.5c-0.6-0.3-1.3,0.1-1.3,0.7v5.4C931.8,52,931.9,52.2,932.2,52.4z"/>
</g>
<g id="words">
	<polygon id="XMLID_3_" fill="#FFFFFF" points="155.2,130.9 134.7,46 128.2,46 107.9,131.1 88.2,46 81,46 102.6,138.6 102.7,139 
		112.9,139 131.5,61.6 150.1,139 160.3,139 181.9,46 174.9,46 	"/>
	<path id="XMLID_45_" fill="#FFFFFF" d="M190.7,49.4c-2.3,2.2-3.5,5-3.5,8.2V139h7V57.6c0-1.3,0.5-1.9,1.4-2.7
		c0.9-0.9,2-0.8,3.3-0.8h18.3v-8h-18.3C195.8,46,193,47.2,190.7,49.4z"/>
	<rect id="XMLID_46_" x="224.2" y="46" fill="#FFFFFF" width="7" height="93"/>
	<rect id="XMLID_47_" x="224.2" y="13" fill="#FFFFFF" width="7" height="16"/>
	<polygon id="XMLID_48_" fill="#FFFFFF" points="265.2,14 258.2,14 258.2,46 238.2,46 238.2,54 258.2,54 258.2,139 265.2,139 
		265.2,54 283.2,54 283.2,46 265.2,46 	"/>
	<path id="XMLID_51_" fill="#FFFFFF" d="M325.3,46h-24.1c-3.1,0-5.6,1.2-7.8,3.4c-2.3,2.2-3.2,5-3.2,8.2v70.6c0,3.2,0.9,5.6,3.2,7.8
		c2.3,2.2,4.7,3,7.8,3h24.1c3.3,0,6.2-0.8,8.4-3c2.2-2.2,3.5-4.6,3.5-7.8V111h-7v17.2c0,1.3-0.6,2-1.5,2.9s-2.1,0.9-3.4,0.9h-24.1
		c-1.2,0-2.5-0.1-3.4-0.9c-0.9-0.9-1.6-1.6-1.6-2.9V97h41V57.6c0-3.2-1.3-6-3.5-8.2C331.5,47.2,328.5,46,325.3,46z M330.2,89h-34
		V57.6c0-1.3,0.7-1.9,1.6-2.7c0.9-0.9,2.2-0.8,3.4-0.8h24.1c1.3,0,2.6,0,3.4,0.8c0.8,0.8,1.4,1.4,1.4,2.8V89z"/>
	<path id="XMLID_52_" fill="#FFFFFF" d="M425.5,46h-25.8c-3.1,0-5.3,1.2-7.6,3.4c-2.3,2.2-2.9,5-2.9,8.2v29.3l41,12v29.4
		c0,1.3-0.6,2.1-1.4,2.9c-0.8,0.8-2,0.9-3.4,0.9h-25.8c-1.2,0-1.8-0.1-2.7-0.9c-0.9-0.9-0.8-1.6-0.8-2.9V111h-7v17.2
		c0,3.2,0.7,5.6,2.9,7.8c2.3,2.2,4.5,3,7.6,3h25.8c3.1,0,5.9-0.8,8.2-3c2.3-2.2,3.6-4.6,3.6-7.8V93.6l-41-12v-24
		c0-1.3,0-1.9,0.8-2.7c0.9-0.9,1.4-0.8,2.7-0.8h25.8c1.3,0,2.5,0,3.4,0.8s1.4,1.4,1.4,2.8V72h7V57.6c0-3.2-1.3-6-3.6-8.2
		C431.4,47.2,428.5,46,425.5,46z"/>
	<path id="XMLID_55_" fill="#FFFFFF" d="M481.3,46h-37.1v133h7v-43.9c2,3,7,3.9,11.9,3.9h18.2c3.1,0,5.5-0.8,7.7-3
		c2.3-2.2,3.1-4.6,3.1-7.8V57.6c0-3.2-0.9-6-3.1-8.2C486.8,47.2,484.4,46,481.3,46z M485.2,128.2c0,1.3-0.1,2-1,2.9
		c-0.9,0.9-1.6,0.9-2.8,0.9h-18.2c-3.4,0-6-0.9-8.5-3.4c-2.5-2.5-3.4-5-3.4-8.5V54h30.1c1.2,0,2,0,2.9,0.8c0.9,0.8,1,1.4,1,2.8
		V128.2z"/>
	<path id="XMLID_58_" fill="#FFFFFF" d="M535.1,46H511c-3.1,0-5.5,1.2-7.7,3.4c-2.3,2.2-3.1,5-3.1,8.2v70.6c0,3.2,0.8,5.6,3.1,7.8
		c2.3,2.2,4.6,3,7.7,3h24.1c3.3,0,5.8-0.8,8-3c2.2-2.2,3.1-4.6,3.1-7.8V111h-7v17.2c0,1.3-0.2,2-1,2.9s-1.7,0.9-3,0.9H511
		c-1.2,0-1.9-0.1-2.8-0.9c-0.9-0.9-1-1.6-1-2.9V97h39V57.6c0-3.2-0.9-6-3.1-8.2C540.9,47.2,538.3,46,535.1,46z M539.2,89h-32V57.6
		c0-1.3,0.1-1.9,1-2.7c0.9-0.9,1.6-0.8,2.8-0.8h24.1c1.3,0,2.2,0,3,0.8c0.8,0.8,1,1.4,1,2.8V89z"/>
	<path id="XMLID_61_" fill="#FFFFFF" d="M588.9,46h-35.7v8h35.7c1.3,0,2.3,0,3.1,0.8c0.8,0.8,1.1,1.4,1.1,2.8V79h-28.4
		c-3.1,0-5.9,1.2-8.1,3.4c-2.3,2.3-3.5,5-3.5,8.2v37.5c0,3.2,1.2,5.6,3.5,7.8c2.3,2.2,5,3,8.1,3h35.4V57.6c0-3.2-1-6-3.2-8.2
		C594.8,47.2,592.1,46,588.9,46z M593.2,132h-28.4c-1.2,0-2.3-0.1-3.2-0.9c-0.9-0.9-1.4-1.6-1.4-2.9V90.6c0-1.3,0.5-2.4,1.4-3.3
		c0.9-0.9,2-1.3,3.2-1.3h28.4V132z"/>
	<polygon id="XMLID_62_" fill="#FFFFFF" points="656.2,46 647.5,46 614.2,90.5 614.2,0 607.2,0 607.2,139 614.2,139 614.2,102 
		627,84.4 652.9,139 660.6,139 631.8,78.2 	"/>
	<path id="XMLID_63_" fill="#FFFFFF" d="M743.9,46h-24.1c-3.1,0-5.3,1.2-7.6,3.4c-2.3,2.2-3,5-3,8.2v70.6c0,3.2,0.7,5.6,3,7.8
		c2.3,2.2,4.5,3,7.6,3h24.1c3.3,0,5.9-0.8,8.1-3c2.2-2.2,3.2-4.6,3.2-7.8V107h-7v21.2c0,1.3-0.3,2-1.2,2.9c-0.9,0.9-1.8,0.9-3.2,0.9
		h-24.1c-1.2,0-1.8-0.1-2.7-0.9c-0.9-0.9-0.9-1.6-0.9-2.9V57.6c0-1.3,0-1.9,0.9-2.7c0.9-0.9,1.5-0.8,2.7-0.8h24.1
		c1.3,0,2.3,0,3.2,0.8c0.8,0.8,1.2,1.4,1.2,2.8V75h7V57.6c0-3.2-1-6-3.2-8.2C749.8,47.2,747.1,46,743.9,46z"/>
	<path id="XMLID_66_" fill="#FFFFFF" d="M799.9,46h-26.3c-3.1,0-5.7,1.2-8,3.4c-2.3,2.2-3.4,5-3.4,8.2v70.6c0,3.2,1.1,5.6,3.4,7.8
		c2.3,2.2,4.9,3,8,3h26.3c3.1,0,5.7-0.8,8-3c2.3-2.2,3.4-4.6,3.4-7.8V57.6c0-3.2-1.1-6-3.4-8.2C805.6,47.2,802.9,46,799.9,46z
		 M804.2,128.2c0,1.3-0.4,2-1.3,2.9c-0.9,0.9-1.9,0.9-3.1,0.9h-26.3c-1.2,0-1.7-0.1-2.6-0.9c-0.9-0.9-0.8-1.6-0.8-2.9V57.6
		c0-1.3-0.1-1.9,0.8-2.7c0.9-0.9,1.4-0.8,2.6-0.8h26.3c1.2,0,2.2,0,3.1,0.8c0.9,0.8,1.3,1.4,1.3,2.8V128.2z"/>
	<path id="XMLID_69_" fill="#FFFFFF" d="M857.2,46h-27.7c-3.1,0-5.7,1.2-8,3.4c-2.3,2.2-3.4,5-3.4,8.2v70.6c0,3.2,1.1,5.6,3.4,7.8
		c2.3,2.2,4.9,3,8,3h34.7V0h-7V46z M857.2,132h-27.7c-1.2,0-2.2-0.1-3.1-0.9c-0.9-0.9-1.3-1.6-1.3-2.9V57.6c0-1.3,0.4-1.9,1.3-2.7
		c0.9-0.9,1.9-0.8,3.1-0.8h27.7V132z"/>
	<path id="XMLID_72_" fill="#FFFFFF" d="M918.2,97V57.6c0-3.2-0.8-6-3-8.2c-2.2-2.2-4.6-3.4-7.8-3.4h-24.1c-3.1,0-5.6,1.2-7.9,3.4
		c-2.3,2.2-3.2,5-3.2,8.2v70.6c0,3.2,1,5.6,3.2,7.8c2.3,2.2,4.8,3,7.9,3h24.1c3.3,0,5.7-0.8,7.9-3c2.2-2.2,2.9-4.6,2.9-7.8V111h-7
		v17.2c0,1.3,0,2-0.9,2.9c-0.9,0.9-1.5,0.9-2.9,0.9h-24.1c-1.2,0-2.1-0.1-3-0.9c-0.9-0.9-1.1-1.6-1.1-2.9V97H918.2z M879.2,57.6
		c0-1.3,0.3-1.9,1.1-2.7c0.9-0.9,1.8-0.8,3-0.8h24.1c1.3,0,2,0,2.9,0.8c0.8,0.8,0.9,1.4,0.9,2.8V89h-32V57.6z"/>
</g>
</svg>
